<svg width="375" height="801" viewBox="0 0 375 801" fill="none" xmlns="http://www.w3.org/2000/svg">
<path d="M187.167 440H199.306L222 461H165L187.167 440Z" fill="black"/>
<path fill-rule="evenodd" clip-rule="evenodd" d="M193 435C293 420.5 375 291.053 375 187.5C375 83.9466 291.053 0 187.5 0C83.9466 0 0 83.9466 0 187.5C0 291.053 88 422.5 193 435ZM295.061 75.0716C291.511 72.0003 286.143 72.3886 283.072 75.9389C280 79.4892 280.389 84.8571 283.939 87.9284C342.683 138.747 335.174 217.865 311.17 274.692C309.343 279.017 311.368 284.003 315.692 285.83C320.017 287.657 325.003 285.632 326.83 281.308C351.826 222.135 362.317 133.253 295.061 75.0716Z" fill="black"/>
<path d="M219.116 795.486C218.555 797.907 220.064 800.324 222.486 800.884C224.907 801.444 227.324 799.936 227.884 797.514L219.116 795.486ZM188.5 461C188.5 463.674 189.449 466.555 190.503 469.238C191.586 471.995 193.104 475.299 194.625 478.79C197.734 485.924 201.302 494.809 203.459 505.804C207.741 527.632 206.586 558.438 183.557 600.332L191.443 604.668C215.414 561.061 217.008 528.118 212.291 504.071C209.948 492.128 206.079 482.545 202.875 475.194C201.24 471.443 199.883 468.501 198.88 465.948C197.848 463.32 197.5 461.826 197.5 461H188.5ZM183.557 600.332C171.481 622.3 169.2 638.4 173.117 652.183C176.92 665.569 186.471 676.014 195.506 686.662C204.736 697.539 214.056 709.22 219.43 725.809C224.789 742.352 226.35 764.218 219.116 795.486L227.884 797.514C235.4 765.032 233.961 741.46 227.992 723.035C222.037 704.655 211.701 691.836 202.368 680.838C192.841 669.611 184.923 660.806 181.774 649.723C178.737 639.037 180.02 625.45 191.443 604.668L183.557 600.332Z" fill="#565656"/>
</svg>
